<?xml version="1.0" standalone="no"?>
<!DOCTYPE svg PUBLIC "-//W3C//DTD SVG 20010904//EN"
 "http://www.w3.org/TR/2001/REC-SVG-20010904/DTD/svg10.dtd">
<svg version="1.0" xmlns="http://www.w3.org/2000/svg"
 width="615.000000pt" height="482.000000pt" viewBox="0 0 615.000000 482.000000"
 preserveAspectRatio="xMidYMid meet">

<g transform="translate(0.000000,482.000000) scale(0.100000,-0.100000)"
fill="#000000" stroke="none">
<path d="M0 2410 l0 -2410 3075 0 3075 0 0 2410 0 2410 -3075 0 -3075 0 0
-2410z m3070 1934 c25 -24 75 -65 113 -91 37 -26 67 -49 67 -53 0 -3 -37 -32
-82 -62 -46 -31 -96 -70 -112 -87 -17 -17 -33 -31 -38 -31 -4 0 -43 29 -87 64
-44 36 -98 75 -121 88 -22 13 -40 26 -40 29 0 3 37 31 83 62 45 30 98 72 116
91 19 20 40 36 45 36 6 -1 31 -21 56 -46z m791 -59 c22 -7 21 -8 -8 -20 -16
-7 -33 -20 -37 -30 -5 -15 -9 -14 -37 9 -17 14 -38 26 -47 26 -11 0 -5 7 15
20 18 11 38 28 45 39 12 19 13 19 29 -9 10 -15 28 -31 40 -35z m-1617 40 c3
-8 20 -24 37 -34 l32 -20 -27 -7 c-14 -3 -33 -15 -40 -26 -13 -19 -14 -19 -39
6 -15 14 -34 26 -44 26 -12 0 -8 6 15 20 18 11 35 27 38 35 4 8 10 15 14 15 4
0 10 -7 14 -15z m197 -205 c10 0 19 -4 19 -10 0 -5 -6 -10 -14 -10 -8 0 -24
-12 -35 -26 -20 -25 -22 -26 -39 -10 -10 9 -30 16 -44 16 -30 0 -215 -51 -288
-80 -29 -12 -63 -20 -74 -18 -23 3 95 48 262 98 87 26 106 36 120 60 l16 28
29 -24 c16 -13 37 -24 48 -24z m188 36 c9 -10 8 -16 -4 -26 -17 -14 -45 -7
-45 13 0 29 30 37 49 13z m820 0 c9 -10 8 -16 -4 -26 -17 -14 -45 -7 -45 13 0
29 30 37 49 13z m224 -5 c8 -30 46 -49 183 -91 127 -38 231 -78 207 -79 -7 -1
-57 14 -112 33 -54 19 -133 42 -175 51 -71 16 -78 16 -101 1 -14 -9 -25 -13
-25 -9 0 5 -4 2 -9 -5 -6 -10 -10 -8 -14 10 -4 14 -19 30 -34 38 l-28 13 33 9
c18 5 38 17 45 28 15 25 23 25 30 1z m-1846 -230 c26 -12 27 -13 8 -23 -11 -6
-30 -21 -41 -35 l-22 -26 -7 23 c-4 12 -21 28 -38 35 l-31 13 31 15 c17 9 33
27 37 39 l7 23 14 -26 c7 -14 26 -31 42 -38z m2448 29 c4 -11 18 -27 33 -35
19 -10 22 -14 10 -15 -10 0 -27 -13 -39 -29 l-22 -29 -24 28 c-13 16 -34 30
-46 33 -22 3 -22 4 3 14 14 6 34 20 44 32 24 26 33 26 41 1z m-1635 -15 c40
-21 38 -31 -7 -40 -21 -3 -125 -26 -231 -51 -107 -24 -199 -44 -205 -44 -14 1
100 56 228 111 99 42 165 50 215 24z m951 4 c19 -7 54 -27 78 -45 24 -19 48
-34 53 -34 16 0 370 -171 523 -252 138 -74 201 -115 191 -126 -3 -2 -185 87
-406 197 -359 180 -408 201 -451 201 -97 0 -125 -21 -277 -215 -47 -60 -92
-115 -100 -120 -11 -9 -8 -16 12 -38 14 -16 26 -24 26 -20 0 5 -5 14 -10 19
-18 18 210 303 269 338 22 12 53 20 82 20 43 0 108 -30 603 -277 560 -280 588
-297 603 -356 9 -35 -6 -58 -212 -323 -172 -220 -295 -362 -295 -340 0 6 5 14
10 17 6 3 10 10 10 14 0 10 -78 62 -97 65 -8 1 -18 7 -21 12 -7 10 -229 182
-319 247 -52 37 -58 46 -53 77 1 8 -21 36 -50 61 -50 44 -53 45 -89 36 l-38
-10 121 -96 c67 -53 161 -127 209 -164 195 -152 277 -241 333 -363 56 -120 68
-280 29 -380 -9 -22 -13 -28 -10 -14 23 123 13 232 -30 339 -59 143 -160 251
-445 471 -410 317 -615 516 -778 758 -24 34 -44 62 -46 62 -2 0 -26 -33 -54
-72 -72 -106 -225 -280 -338 -387 -91 -86 -165 -146 -474 -388 -242 -189 -313
-263 -377 -388 -49 -95 -63 -154 -63 -260 1 -171 41 -265 171 -397 90 -91 94
-99 21 -39 -88 70 -175 210 -203 321 -17 71 -17 209 0 280 17 69 52 139 103
210 69 94 131 148 456 399 72 56 132 104 132 107 0 3 -21 -10 -47 -30 -27 -20
-77 -57 -113 -83 -36 -25 -90 -65 -121 -89 l-57 -42 -10 36 c-6 20 -50 147
-97 282 -161 456 -158 448 -145 481 28 66 34 68 600 190 343 74 389 81 545 90
94 5 235 13 315 18 218 12 293 12 331 0z m-1502 -69 c-22 -13 -158 -66 -189
-74 -39 -10 46 32 120 59 68 25 97 31 69 15z m1913 -16 c106 -38 373 -174 513
-261 106 -66 255 -176 255 -188 0 -5 -80 45 -190 119 -117 78 -282 171 -430
242 -74 36 -157 76 -185 89 -66 31 -53 31 37 -1z m-2372 -39 c0 -8 -9 -15 -20
-15 -20 0 -26 11 -13 23 12 13 33 7 33 -8z m2793 0 c1 -5 -6 -11 -15 -13 -11
-2 -18 3 -18 13 0 17 30 18 33 0z m-3213 -54 c0 -4 -11 -13 -24 -20 -20 -11
-28 -10 -50 4 l-27 18 27 18 c25 16 29 16 51 2 12 -8 23 -19 23 -22z m3718 3
c2 -1 -10 -10 -28 -19 -29 -15 -33 -15 -56 0 l-25 16 23 19 c21 17 25 17 53 3
16 -9 32 -17 33 -19z m-3428 -29 c0 -8 -7 -15 -15 -15 -8 0 -15 7 -15 15 0 8
7 15 15 15 8 0 15 -7 15 -15z m3058 3 c-7 -19 -38 -22 -38 -4 0 10 9 16 21 16
12 0 19 -5 17 -12z m-2830 -30 c-3 -7 -31 -28 -64 -47 -32 -19 -111 -67 -174
-106 -63 -40 -126 -78 -140 -85 -23 -12 -24 -12 -11 4 25 30 362 246 384 246
5 0 7 -6 5 -12z m-403 -18 c3 -11 17 -23 31 -26 29 -7 32 -24 4 -24 -11 0 -27
-12 -37 -26 -16 -26 -17 -26 -25 -5 -4 12 -16 24 -25 27 -10 3 -25 8 -33 11
-10 3 -4 9 18 18 18 8 35 21 38 30 8 21 21 19 29 -5z m3417 -5 c11 -14 26 -25
34 -25 8 0 14 -4 14 -10 0 -5 -7 -10 -15 -10 -8 0 -23 -10 -35 -22 l-20 -22
-16 22 c-8 12 -24 22 -34 22 -10 0 -22 5 -25 10 -3 6 3 10 14 10 11 0 28 11
37 25 9 14 19 25 21 25 3 0 14 -11 25 -25z m-2929 -242 c26 -76 65 -190 87
-253 53 -148 120 -354 120 -366 0 -5 -28 -30 -61 -54 -34 -25 -95 -81 -136
-125 l-75 -80 -35 43 c-20 23 -57 71 -82 106 -25 36 -104 144 -176 242 -185
252 -186 254 -192 290 -7 42 23 91 74 122 21 12 121 63 221 112 101 48 186 91
190 94 13 14 21 -1 65 -131z m-623 76 c0 -16 -31 -22 -43 -10 -9 9 -9 14 2 20
16 10 41 4 41 -10z m3690 -5 c0 -16 -26 -19 -35 -4 -3 6 -4 14 0 20 8 13 35 1
35 -16z m-3805 -99 c15 -8 -47 2 -69 11 -16 6 -15 2 8 -32 27 -40 32 -54 18
-54 -8 0 -62 86 -62 99 0 8 76 -10 105 -24z m2017 -70 c126 -152 277 -291 583
-535 242 -193 326 -280 383 -400 32 -65 37 -86 40 -167 4 -86 2 -96 -27 -159
-39 -83 -141 -188 -221 -227 -60 -29 -172 -57 -233 -57 -67 0 -189 31 -256 65
-115 58 -246 192 -298 305 -10 22 -21 40 -25 40 -14 0 -9 -74 8 -130 9 -30 16
-69 16 -88 0 -31 39 -116 64 -137 6 -5 25 -30 42 -56 78 -116 252 -242 411
-296 l96 -32 -665 0 -665 0 85 28 c158 52 268 120 376 233 115 119 170 214
178 304 2 32 8 86 11 119 l6 60 -34 -55 c-61 -98 -121 -170 -182 -219 -62 -50
-157 -103 -210 -116 -130 -32 -290 -18 -392 33 -89 46 -176 130 -215 210 -30
61 -33 75 -33 157 1 105 18 166 74 252 55 85 137 162 406 381 236 192 477 420
560 530 21 28 42 49 45 44 4 -4 36 -43 72 -87z m1946 72 c7 -6 12 -22 10 -36
-2 -19 -11 -28 -35 -35 -67 -19 -113 51 -53 81 25 13 54 9 78 -10z m-4088
-258 l24 -12 -24 -9 c-14 -5 -35 -20 -46 -35 -21 -25 -22 -25 -28 -5 -4 11
-23 27 -44 35 l-37 15 27 10 c14 6 34 22 45 36 l18 24 20 -23 c11 -13 31 -29
45 -36z m4208 31 c7 -12 25 -25 40 -31 l27 -11 -30 -12 c-17 -7 -36 -20 -44
-29 -12 -15 -16 -15 -43 8 -16 14 -36 25 -44 25 -8 0 -14 5 -14 10 0 6 8 10
18 10 10 0 29 11 42 25 28 30 32 31 48 5z m-2563 -127 c-27 -24 -120 -97 -204
-161 -275 -207 -365 -290 -451 -416 -130 -191 -108 -430 54 -591 108 -107 229
-154 406 -156 l95 -1 -50 -13 c-313 -81 -638 164 -638 480 0 230 114 374 568
716 248 187 329 239 220 142z m-1510 -13 c0 -18 -33 -26 -47 -12 -6 6 -7 15
-3 22 10 16 50 8 50 -10z m2640 -186 c294 -221 393 -320 456 -459 60 -134 59
-267 -4 -399 -102 -214 -329 -328 -567 -285 l-75 13 115 7 c63 3 140 13 170
22 131 39 251 141 312 264 28 58 33 78 36 163 10 248 -99 393 -558 738 -52 39
-113 88 -135 107 l-40 36 50 -32 c28 -18 136 -97 240 -175z m1263 183 c3 -12
-3 -17 -22 -17 -25 0 -35 18 -19 34 12 12 38 2 41 -17z m-3762 -39 c-45 -79
-76 -143 -76 -155 0 -7 -4 -13 -10 -13 -16 0 -12 22 19 87 32 67 70 123 83
123 5 0 -2 -19 -16 -42z m3615 -27 c35 -59 64 -142 50 -140 -3 0 -29 47 -58
105 -56 114 -51 136 8 35z m-3756 -221 c122 -59 125 -188 4 -239 -52 -23 -76
-21 -116 8 -26 18 -32 71 -9 71 8 0 17 -6 20 -12 5 -10 7 -10 12 -1 4 8 13 7
33 -5 26 -15 30 -15 55 1 39 26 35 67 -9 105 -106 94 -299 17 -355 -141 -25
-72 -25 -124 0 -216 74 -264 416 -567 737 -651 63 -16 80 -18 102 -7 51 24 37
67 -31 94 -21 8 -38 19 -38 24 0 19 77 9 111 -14 30 -20 34 -28 34 -66 0 -57
-31 -82 -101 -84 -50 -2 -75 4 -219 52 -154 50 -372 199 -483 329 -172 202
-235 465 -147 618 83 142 260 202 400 134z m4126 -11 c134 -72 187 -206 154
-390 -29 -162 -102 -288 -246 -423 -136 -128 -291 -221 -462 -277 -150 -49
-244 -41 -266 23 -20 57 32 114 108 120 50 4 49 -17 -2 -37 -44 -17 -68 -47
-59 -73 23 -67 254 9 475 155 86 57 249 217 299 293 143 219 141 433 -5 537
-57 41 -109 56 -169 51 -83 -8 -141 -69 -117 -122 16 -34 44 -42 75 -21 36 23
68 16 72 -16 4 -31 -24 -58 -64 -61 -34 -2 -138 53 -148 78 -3 9 -6 33 -6 55
0 30 7 47 33 75 73 80 213 94 328 33z m-3821 -2 c1 -43 33 -92 68 -102 17 -5
32 -12 32 -16 0 -11 -87 -21 -125 -13 -36 6 -59 24 -31 24 32 0 45 28 39 87
-5 41 -3 54 5 49 7 -4 12 -17 12 -29z m3251 -37 c5 0 9 -14 9 -30 0 -26 5 -31
30 -36 69 -14 -19 -39 -99 -28 -47 6 -63 24 -21 24 26 0 60 46 61 84 1 23 3
26 6 9 2 -13 9 -23 14 -23z m-3171 -199 c44 -7 44 -7 -32 -14 -177 -17 -306
-86 -360 -191 -42 -81 -41 -141 1 -246 21 -50 21 -53 3 -37 -10 9 -32 43 -47
74 -36 70 -40 166 -11 225 68 139 257 220 446 189z m3291 -7 c167 -50 270
-166 255 -288 -10 -73 -25 -114 -64 -173 -39 -59 -56 -73 -22 -18 12 19 26 49
31 67 15 51 12 161 -5 201 -22 53 -98 124 -167 157 -68 32 -209 56 -267 45
-20 -4 -34 -4 -31 -1 25 26 196 32 270 10z m-3863 0 c29 -8 28 -11 -13 -58
-29 -33 -37 -37 -50 -26 -22 18 -18 56 7 74 25 18 25 18 56 10z m4289 -16 c18
-14 16 -53 -2 -68 -13 -11 -21 -8 -50 20 -37 36 -43 55 -22 64 16 6 58 -3 74
-16z m-3678 -74 c45 -18 71 -51 71 -89 0 -30 3 -30 -51 -5 -117 52 -265 -8
-285 -116 -17 -92 34 -221 122 -313 106 -109 7 -82 -111 31 -158 149 -176 283
-56 411 78 83 215 119 310 81z m3223 -16 c67 -31 123 -80 149 -129 23 -46 25
-129 5 -187 -30 -83 -134 -200 -218 -243 -74 -38 -77 -20 -9 50 74 76 123 172
128 251 3 51 0 72 -15 100 -53 97 -210 132 -291 65 l-29 -25 -5 28 c-8 41 13
74 63 100 58 30 143 26 222 -10z m-3312 -225 c92 -281 372 -554 695 -679 70
-27 64 -29 -23 -9 -125 30 -270 117 -406 246 -155 146 -242 270 -280 398 -15
51 -21 111 -12 111 2 0 14 -30 26 -67z m3210 -16 c-42 -204 -301 -492 -551
-615 -76 -37 -207 -78 -217 -68 -2 2 23 14 55 26 326 122 610 401 701 689 20
65 28 44 12 -32z m-339 -171 c-11 -25 -22 -46 -26 -46 -3 0 2 17 11 38 9 20
18 43 21 50 3 7 8 11 10 8 3 -2 -4 -25 -16 -50z m-51 -90 c0 -9 -69 -85 -105
-117 -24 -20 -12 -3 30 43 69 76 75 82 75 74z m-210 -191 c0 -6 -76 -45 -87
-45 -4 1 12 12 37 25 50 27 50 27 50 20z m-1940 -40 c14 -8 21 -14 15 -14 -5
0 -21 6 -35 14 -14 8 -20 14 -15 14 6 0 21 -6 35 -14z m-1105 -166 c211 -34
281 -71 306 -162 16 -60 3 -138 -31 -185 l-28 -39 36 -37 37 -36 0 -109 c0
-123 -8 -142 -81 -194 -31 -22 -260 -110 -393 -152 l-24 -7 24 33 24 34 3 390
c1 215 0 401 -3 414 -3 13 -20 37 -38 53 l-31 30 35 -6 c19 -3 92 -15 164 -27z
m4205 17 c-14 -8 -35 -27 -47 -44 -37 -50 -173 -317 -173 -340 0 -12 32 -101
71 -199 98 -249 128 -315 152 -341 11 -12 17 -22 12 -22 -5 0 -59 16 -120 37
-94 30 -114 40 -122 62 -6 14 -37 91 -68 171 -31 80 -61 150 -67 155 -6 7 -9
-34 -6 -122 3 -120 5 -134 27 -164 l24 -32 -24 7 c-13 4 -70 19 -126 33 -100
26 -102 27 -85 46 15 17 17 49 17 332 0 287 -1 315 -18 333 -18 19 -17 20 60
31 43 6 101 14 128 17 l50 7 -25 -27 c-22 -25 -25 -38 -28 -122 -2 -52 0 -94
5 -94 13 0 116 227 108 239 -3 6 -3 11 2 12 4 0 62 8 128 18 150 23 156 23
125 7z m-3680 -91 c93 -9 95 -10 71 -41 -20 -25 -21 -39 -21 -230 0 -116 4
-205 9 -209 18 -11 143 28 173 53 l31 26 -8 -78 c-4 -49 -3 -76 3 -73 15 10
38 82 92 292 41 156 50 203 41 217 -10 17 -3 18 118 18 l129 0 4 -32 c9 -60
107 -430 118 -443 14 -17 -1 -21 -100 -30 l-75 -6 -2 42 c0 22 -5 45 -10 50
-5 5 -35 7 -66 3 -55 -7 -57 -7 -64 -43 -3 -20 -6 -44 -5 -53 0 -12 -9 -19
-31 -22 -178 -28 -255 -43 -396 -77 -90 -21 -165 -39 -167 -39 -2 0 7 17 21
39 l26 38 -3 288 -3 287 -25 20 -25 21 50 -6 c28 -4 79 -9 115 -12z m2969 -15
c65 -18 104 -82 86 -140 -8 -25 -60 -50 -105 -50 -27 0 -30 3 -30 29 0 29 -22
61 -41 61 -5 0 -18 -9 -29 -20 -18 -18 -20 -33 -20 -173 0 -122 3 -157 16
-175 31 -45 74 -18 74 47 0 16 3 32 8 34 4 2 34 -3 67 -12 l60 -16 0 -69 c0
-61 -3 -70 -27 -91 -56 -48 -206 -41 -282 12 -71 50 -81 84 -81 273 0 181 7
209 67 253 52 39 168 57 237 37z m-1897 -15 c49 -8 98 -54 98 -92 0 -39 -25
-60 -82 -68 -45 -7 -48 -6 -48 16 0 24 -26 59 -43 59 -6 0 -19 -7 -29 -17 -15
-14 -18 -32 -18 -129 0 -89 3 -116 16 -128 8 -9 19 -16 23 -16 19 0 42 28 45
55 4 29 5 30 52 27 26 -2 56 -8 66 -13 47 -25 23 -105 -42 -144 -50 -29 -200
-29 -248 0 -63 38 -72 65 -72 223 0 137 1 141 26 171 33 39 55 51 113 61 45 7
70 7 143 -5z m352 -22 c-14 -29 -19 -75 -8 -86 7 -6 94 91 94 105 0 4 43 8 96
8 l97 0 -78 -81 c-72 -76 -77 -83 -72 -116 9 -53 64 -164 100 -201 66 -70 147
-91 258 -67 99 20 98 21 90 -17 -13 -64 -107 -98 -213 -78 -124 23 -240 106
-319 227 -25 40 -49 69 -53 66 -13 -14 -6 -149 10 -171 l15 -22 -112 0 c-108
0 -111 1 -96 18 15 16 17 46 17 212 0 166 -2 196 -17 212 -15 17 -12 18 95 18
l111 0 -15 -27z m582 5 c-10 -16 -16 -70 -21 -178 -8 -177 -18 -205 -84 -235
-29 -13 -56 -16 -101 -13 -52 4 -66 9 -92 35 -53 53 -37 108 34 120 34 5 37 4
40 -23 2 -21 8 -29 23 -29 19 0 20 8 23 152 2 142 1 154 -18 173 l-20 20 115
0 115 0 -14 -22z m480 5 c-3 -10 1 -40 8 -68 8 -27 37 -135 65 -239 28 -105
59 -198 68 -208 20 -22 19 -22 -97 -6 l-88 11 -6 46 c-4 25 -10 51 -14 57 -4
7 -33 15 -64 19 -57 7 -57 7 -64 -21 -4 -16 -7 -41 -7 -57 0 -25 -3 -27 -26
-23 -14 3 -58 8 -98 11 l-72 7 19 26 c10 15 30 68 44 117 13 50 38 140 55 201
17 62 28 119 25 128 -5 14 8 16 126 16 120 0 131 -1 126 -17z m-1903 -683 c21
-39 42 -70 46 -70 4 0 25 32 46 70 37 68 40 70 77 70 l38 0 0 -145 0 -145 -43
0 -43 0 4 60 c3 35 0 60 -5 60 -6 0 -25 -24 -42 -52 l-33 -52 -36 59 -37 58
-3 -65 -3 -66 -39 -4 -39 -3 -3 147 -3 148 40 0 c39 0 41 -2 78 -70z m538 -70
c27 -74 49 -138 49 -142 0 -5 -20 -8 -45 -8 -39 0 -45 3 -51 25 -6 22 -11 25
-55 25 -43 0 -51 -3 -61 -25 -9 -21 -18 -25 -56 -25 -38 0 -43 2 -37 18 4 9
24 62 45 117 21 55 43 113 49 128 10 26 14 28 62 25 l51 -3 49 -135z m324 126
c41 -17 43 -28 13 -48 -18 -12 -27 -12 -61 -1 -44 15 -80 9 -75 -13 2 -8 37
-29 78 -47 82 -35 103 -63 84 -113 -22 -62 -146 -84 -232 -43 l-44 22 25 25
c25 24 26 25 60 9 58 -28 127 -18 114 16 -3 8 -30 23 -59 32 -69 22 -97 40
-108 71 -12 31 5 71 39 89 34 19 123 19 166 1z m363 -16 c2 -29 1 -30 -43 -30
l-45 0 0 -115 0 -115 -45 0 -45 0 0 115 0 115 -45 0 c-43 0 -45 1 -45 30 l0
30 133 0 133 0 2 -30z m312 0 l0 -30 -80 0 c-78 0 -80 -1 -80 -24 0 -23 5 -25
48 -28 45 -3 47 -4 47 -33 0 -29 -2 -30 -47 -33 -44 -3 -48 -5 -48 -29 l0 -25
86 3 c81 4 85 3 80 -16 -3 -11 -6 -26 -6 -32 0 -10 -32 -13 -125 -13 l-125 0
0 145 0 145 125 0 125 0 0 -30z m334 1 c35 -33 35 -88 0 -130 l-25 -30 30 -45
c17 -25 31 -47 31 -51 0 -3 -21 -5 -47 -3 -45 3 -49 6 -71 46 -18 31 -30 42
-48 42 -22 0 -24 -4 -24 -45 l0 -45 -45 0 -45 0 0 146 0 146 109 -4 c100 -3
112 -5 135 -27z m-2191 -83 c52 -27 61 -75 21 -107 -32 -25 -74 -27 -114 -6
-24 13 -30 22 -30 49 0 59 68 94 123 64z m2511 2 c14 -5 33 -21 42 -35 14 -22
15 -30 4 -49 -25 -48 -99 -60 -144 -25 -40 32 -32 80 19 107 25 14 47 15 79 2z"/>
<path d="M2991 4291 c-11 -15 -45 -41 -75 -57 l-55 -29 34 -17 c19 -10 53 -36
76 -58 23 -22 44 -40 46 -40 2 0 16 13 31 30 15 16 51 43 81 59 l53 29 -37 12
c-20 7 -58 32 -83 56 -25 24 -47 44 -48 44 -1 0 -12 -13 -23 -29z"/>
<path d="M3606 3740 c-49 -28 -97 -50 -107 -50 -9 0 -19 -6 -22 -13 -7 -19 82
-62 97 -47 8 8 7 13 -4 20 -29 18 1 23 38 6 l37 -18 -30 -15 -29 -16 45 -22
c48 -25 69 -19 62 18 -2 12 5 47 15 77 10 30 21 61 23 68 2 8 -5 20 -16 28
-19 12 -29 9 -109 -36z m47 -48 c-6 -16 -12 -19 -23 -12 -13 8 -12 11 5 24 24
18 28 15 18 -12z"/>
<path d="M1967 3701 c-17 -6 -19 -20 -20 -119 -2 -125 -2 -125 73 -98 36 13
49 42 18 40 -27 -2 -21 15 8 26 36 14 57 12 51 -3 -3 -8 -2 -19 2 -25 11 -18
121 16 114 34 -3 8 -13 14 -22 14 -9 0 -58 32 -110 70 -51 39 -94 70 -94 69
-1 0 -10 -4 -20 -8z m80 -108 c2 -6 -5 -13 -17 -16 -11 -3 -20 -2 -20 1 0 4
-3 18 -7 32 -6 24 -6 24 17 9 13 -9 25 -20 27 -26z"/>
<path d="M3110 3650 c6 -11 13 -20 16 -20 2 0 0 9 -6 20 -6 11 -13 20 -16 20
-2 0 0 -9 6 -20z"/>
<path d="M3546 3581 c-16 -17 -20 -18 -47 -4 -18 9 -40 12 -57 8 -35 -8 -72
-43 -72 -67 0 -26 36 -58 68 -59 15 0 20 -3 12 -6 -8 -2 -22 -7 -30 -10 -10
-3 -4 -10 20 -23 45 -24 49 -24 43 0 -3 11 -1 20 4 20 5 0 16 -9 26 -20 36
-43 137 -13 137 40 0 25 -34 60 -58 60 -15 0 -17 6 -14 34 5 41 -9 52 -32 27z"/>
<path d="M3160 3583 c0 -6 8 -17 18 -24 16 -13 16 -13 2 6 -8 11 -16 22 -17
24 -2 2 -3 0 -3 -6z"/>
<path d="M2067 3468 c-9 -18 -33 -52 -52 -76 -42 -52 -45 -89 -11 -129 32 -37
99 -39 146 -5 17 13 33 22 36 20 2 -3 -1 -19 -6 -37 -8 -28 -7 -31 8 -27 9 3
37 10 62 17 39 10 43 13 27 23 -52 32 -54 35 -14 36 77 0 128 50 107 105 -11
30 -65 65 -100 65 -24 0 -124 21 -165 35 -16 5 -24 -1 -38 -27z"/>
<path d="M3345 3360 c10 -11 20 -20 23 -20 3 0 -3 9 -13 20 -10 11 -20 20 -23
20 -3 0 3 -9 13 -20z"/>
<path d="M3395 3310 c10 -11 20 -20 23 -20 3 0 -3 9 -13 20 -10 11 -20 20 -23
20 -3 0 3 -9 13 -20z"/>
<path d="M2485 3168 l-40 -43 40 35 c22 19 44 38 50 42 5 5 5 8 -1 8 -5 0 -28
-19 -49 -42z"/>
<path d="M3543 3165 c26 -26 50 -45 53 -43 3 3 -19 25 -48 48 l-53 43 48 -48z"/>
<path d="M2414 3108 l-19 -23 23 19 c21 18 27 26 19 26 -2 0 -12 -10 -23 -22z"/>
<path d="M1417 3372 c-15 -16 -14 -24 4 -96 11 -44 18 -90 15 -102 -9 -34 10
-38 69 -14 39 16 52 26 48 37 -3 8 -14 13 -24 10 -11 -3 -21 -1 -25 4 -7 12
83 55 93 45 5 -5 2 -11 -4 -13 -18 -7 -16 -33 3 -33 8 0 38 10 65 21 51 22 59
41 21 47 -12 2 -66 28 -121 58 -55 30 -107 54 -114 54 -8 0 -21 -8 -30 -18z
m93 -67 c37 -19 38 -31 4 -39 -31 -8 -29 -9 -38 27 -7 31 -5 32 34 12z"/>
<path d="M1620 3138 c0 -11 -7 -47 -16 -80 -14 -55 -14 -62 1 -85 16 -24 16
-24 -4 -14 -12 7 -21 24 -23 44 l-4 32 -8 -28 c-22 -75 111 -101 153 -30 9 15
10 14 11 -9 0 -32 12 -34 57 -10 l33 17 -33 15 -32 15 36 3 c80 7 83 76 4 98
-25 7 -34 13 -25 16 8 4 -1 6 -20 6 -19 0 -56 7 -82 15 -46 15 -48 14 -48 -5z"/>
<path d="M1858 3075 c2 -14 8 -25 13 -25 14 0 11 26 -5 39 -11 9 -12 6 -8 -14z"/>
<path d="M2977 3332 c-86 -113 -360 -365 -631 -581 -117 -94 -247 -227 -284
-293 -61 -107 -74 -234 -35 -352 21 -64 126 -172 203 -208 152 -72 353 -55
496 41 57 38 136 111 120 111 -4 0 -37 -18 -73 -40 -134 -81 -265 -112 -383
-91 -138 25 -236 95 -286 204 -25 53 -29 74 -29 147 1 75 5 93 33 150 53 107
139 197 367 386 156 128 326 279 444 392 91 89 94 90 117 75 13 -8 24 -19 24
-23 0 -13 298 -282 490 -443 230 -191 326 -291 371 -383 31 -63 34 -77 34
-159 0 -78 -4 -97 -28 -147 -114 -232 -429 -272 -699 -87 -72 49 -64 25 14
-46 232 -210 628 -160 749 94 46 95 51 189 16 289 -14 40 -43 98 -64 129 -37
55 -204 212 -314 295 -142 108 -477 420 -559 522 -25 30 -49 55 -55 55 -5 0
-23 -16 -38 -37z"/>
<path d="M2890 3117 c-64 -62 -181 -168 -260 -236 -290 -248 -333 -287 -382
-345 -27 -33 -64 -87 -81 -120 -29 -55 -32 -70 -32 -151 0 -80 3 -95 28 -137
59 -100 164 -159 297 -166 103 -5 183 13 285 63 161 79 236 189 259 378 3 26
4 47 1 47 -3 0 -18 -26 -34 -58 -54 -108 -125 -151 -228 -139 -69 8 -98 41
-98 116 0 75 29 118 152 224 107 91 191 182 200 214 7 32 14 29 45 -20 28 -44
109 -125 231 -230 119 -103 151 -199 90 -267 -23 -26 -38 -32 -85 -37 -97 -10
-169 38 -220 146 -12 28 -26 50 -30 51 -21 1 5 -134 42 -218 29 -65 142 -173
220 -210 88 -41 174 -62 257 -62 151 0 269 66 331 185 73 140 -1 317 -213 507
-33 29 -89 78 -125 108 -112 94 -320 281 -421 378 -53 50 -100 92 -105 92 -5
-1 -61 -51 -124 -113z m158 -21 c7 -33 -31 -46 -63 -22 -17 12 -17 16 -5 30
18 22 64 17 68 -8z m-424 -342 c37 -14 12 -54 -34 -54 -29 0 -44 25 -25 44 17
17 34 20 59 10z m836 -9 c7 -8 10 -22 6 -31 -9 -23 -70 -15 -74 10 -7 33 45
49 68 21z m-1044 -565 c29 0 31 -11 4 -35 -11 -10 -20 -26 -20 -37 0 -21 -1
-21 -34 -7 -17 8 -33 8 -54 1 -30 -10 -30 -10 -25 23 3 19 1 35 -6 39 -19 12
-12 24 18 31 16 3 35 13 42 22 11 13 15 12 32 -11 11 -16 28 -26 43 -26z
m1322 14 c31 -6 32 -8 18 -29 -8 -13 -12 -32 -9 -45 6 -21 4 -23 -26 -17 -21
5 -43 1 -63 -9 l-31 -16 7 26 c5 20 1 29 -19 42 -32 21 -32 34 0 34 15 0 31
10 41 25 15 23 18 24 34 10 9 -8 31 -18 48 -21z"/>
<path d="M2967 1842 c-61 -90 -193 -217 -291 -281 l-79 -51 419 0 419 0 -76
49 c-100 64 -219 177 -286 274 -30 42 -56 77 -57 77 -1 0 -23 -31 -49 -68z
m153 -154 c60 -62 110 -114 110 -115 0 -2 -97 -3 -216 -3 l-217 0 102 105 c55
58 101 110 101 115 0 6 2 10 5 10 3 0 55 -51 115 -112z"/>
<path d="M3010 1696 c0 -8 -16 -28 -35 -45 -19 -17 -35 -33 -35 -36 0 -3 41
-5 92 -5 l92 0 -49 50 c-51 52 -65 60 -65 36z"/>
<path d="M4964 3405 c-9 -23 3 -45 24 -45 11 0 25 7 32 15 16 19 -3 45 -32 45
-10 0 -21 -7 -24 -15z"/>
<path d="M1030 1251 l0 -101 35 0 c53 0 75 28 75 94 0 66 -20 94 -72 103 l-38
6 0 -102z"/>
<path d="M1038 1034 c-5 -4 -8 -54 -8 -111 0 -111 2 -113 53 -94 46 18 57 38
57 105 0 34 -6 70 -13 79 -13 19 -77 34 -89 21z"/>
<path d="M2012 1179 c-16 -68 -15 -79 6 -79 38 0 44 14 31 66 -17 69 -24 72
-37 13z"/>
<path d="M3852 1179 c-16 -69 -16 -69 18 -69 17 0 30 5 30 11 0 20 -23 99 -30
104 -4 2 -12 -18 -18 -46z"/>
<path d="M2512 641 c-17 -54 -15 -61 11 -61 33 0 36 6 23 50 -16 54 -21 56
-34 11z"/>
<path d="M3810 670 c0 -38 2 -40 31 -40 40 0 69 16 69 38 0 28 -21 42 -62 42
-38 0 -38 0 -38 -40z"/>
</g>
</svg>
